# xmcd
#
# Track frame offsets: 
#        150
#        5092
#        25685
#        42660
#        62110
#        83892
#        105215
#        126729
#        141642
#        160560
#        178595
#        200330
#        224150
#        252457
#
# Disc length: 4453 seconds
#
# Revision: 6
# Processed by: cddbd v1.5.2PL0 Copyright (c) Steve Scherf et al.
# Submitted via: ExactAudioCopyFreeDBPlugin 1.0
#
DISCID=d211630e
DTITLE=Tamia - A Nu Day
DYEAR=2000
DGENRE=R&B
TTITLE0=Interlude
TTITLE1=Dear John
TTITLE2=Can't Go For That
TTITLE3=Go
TTITLE4=Love Me In A Special Way
TTITLE5=Long Distance Love
TTITLE6=Stranger In My House
TTITLE7=Wanna Be
TTITLE8=Un'h . . . To You
TTITLE9=Can't No Man
TTITLE10=Tell Me Who
TTITLE11=If I Were You
TTITLE12=Can't Go For That (Remix) (feat. 213)
TTITLE13=Data
EXTD=
EXTT0=
EXTT1=
EXTT2=
EXTT3=
EXTT4=
EXTT5=
EXTT6=
EXTT7=
EXTT8=
EXTT9=
EXTT10=
EXTT11=
EXTT12=
EXTT13=
PLAYORDER=
